Condensed.ufo
<glyph name="exclam" format="1">
  <advance width="164.29361008"/>
  <unicode hex="0021"/>
  <outline>
    <contour>
      <point x="57" y="155" type="line"/>
      <point x="57" y="685" type="line"/>
      <point x="107" y="685" type="line"/>
      <point x="107" y="155" type="line"/>
    </contour>
    <component base="period" xOffset="-6"/>
  </outline>
</glyph>
<glyph name="numbersign" format="1">
  <advance width="662"/>
  <unicode hex="0023"/>
  <outline>
    <contour>
      <point x="319" y="1" type="line"/>
      <point x="504" y="584" type="line"/>
      <point x="550" y="584" type="line"/>
      <point x="365" y="1" type="line"/>
    </contour>
    <contour>
      <point x="93" y="1" type="line"/>
      <point x="278" y="584" type="line"/>
      <point x="324" y="584" type="line"/>
      <point x="139" y="1" type="line"/>
    </contour>
    <contour>
      <point x="56" y="206" type="line"/>
      <point x="544" y="206" type="line"/>
      <point x="526" y="161" type="line"/>
      <point x="38" y="161" type="line"/>
    </contour>
    <contour>
      <point x="125" y="444" type="line"/>
      <point x="613" y="444" type="line"/>
      <point x="595" y="399" type="line"/>
      <point x="107" y="399" type="line"/>
    </contour>
  </outline>
</glyph>
<glyph name="parenright" format="1">
  <advance width="345"/>
  <unicode hex="0029"/>
  <outline>
    <contour>
      <point x="207" y="307" type="curve"/>
      <point x="207" y="142"/>
      <point x="172" y="-32"/>
      <point x="35" y="-65" type="curve"/>
      <point x="35" y="-110" type="line"/>
      <point x="213" y="-82"/>
      <point x="257" y="120"/>
      <point x="257" y="307" type="curve"/>
      <point x="257" y="488"/>
      <point x="209" y="683"/>
      <point x="35" y="712" type="curve"/>
      <point x="35" y="668" type="line"/>
      <point x="167" y="632"/>
      <point x="207" y="467"/>
    </contour>
  </outline>
</glyph>
<glyph name="comma" format="1">
  <advance width="177"/>
  <unicode hex="002C"/>
  <outline>
    <contour>
      <point x="98" y="0" type="line"/>
      <point x="101" y="-51"/>
      <point x="87" y="-79"/>
      <point x="52" y="-99" type="curve"/>
      <point x="65" y="-119" type="line"/>
      <point x="105" y="-96"/>
      <point x="126" y="-62"/>
      <point x="127" y="0" type="curve" smooth="yes"/>
      <point x="127" y="115" type="line"/>
      <point x="60" y="115" type="line"/>
      <point x="60" y="0" type="line"/>
    </contour>
    <contour>
      <point x="68" y="199" type="move" name="_bottom"/>
    </contour>
  </outline>
</glyph>
<glyph name="slash" format="1">
  <advance width="533"/>
  <unicode hex="002F"/>
  <outline>
    <contour>
      <point x="58" y="-104" type="line"/>
      <point x="428" y="760" type="line"/>
      <point x="436" y="756"/>
      <point x="470" y="744"/>
      <point x="470" y="744" type="curve"/>
      <point x="101" y="-120" type="line"/>
    </contour>
  </outline>
</glyph>
<glyph name="zero" format="1">
  <advance width="440"/>
  <unicode hex="0030"/>
  <outline>
    <contour>
      <point x="220" y="35" type="curve"/>
      <point x="311" y="35"/>
      <point x="355" y="166"/>
      <point x="355" y="337" type="curve"/>
      <point x="355" y="512"/>
      <point x="312" y="648"/>
      <point x="220" y="648" type="curve"/>
      <point x="128" y="648"/>
      <point x="85" y="512"/>
      <point x="85" y="337" type="curve"/>
      <point x="85" y="166"/>
      <point x="129" y="35"/>
    </contour>
    <contour>
      <point x="220" y="-12" type="curve"/>
      <point x="89" y="-12"/>
      <point x="35" y="143"/>
      <point x="35" y="337" type="curve"/>
      <point x="35" y="535"/>
      <point x="88" y="695"/>
      <point x="220" y="695" type="curve"/>
      <point x="352" y="695"/>
      <point x="405" y="535"/>
      <point x="405" y="337" type="curve"/>
      <point x="405" y="143"/>
      <point x="351" y="-12"/>
    </contour>
  </outline>
</glyph>
<glyph name="one" format="1">
  <advance width="236"/>
  <unicode hex="0031"/>
  <outline>
    <contour>
      <point x="131" y="0" type="line"/>
      <point x="131" y="597" type="line"/>
      <point x="148" y="551" type="line"/>
      <point x="20" y="551" type="line"/>
      <point x="20" y="582" type="line"/>
      <point x="86" y="587"/>
      <point x="138" y="614"/>
      <point x="148" y="685" type="curve"/>
      <point x="181" y="685" type="line"/>
      <point x="181" y="0" type="line"/>
    </contour>
  </outline>
</glyph>
<glyph name="two" format="1">
  <advance width="371"/>
  <unicode hex="0032"/>
  <outline>
    <contour>
      <point x="341" y="0" type="line"/>
      <point x="56" y="0" type="line"/>
      <point x="56" y="20" type="line" smooth="yes"/>
      <point x="56" y="343"/>
      <point x="289" y="305"/>
      <point x="289" y="522" type="curve"/>
      <point x="289" y="596"/>
      <point x="249" y="648"/>
      <point x="184" y="648" type="curve" smooth="yes"/>
      <point x="125" y="648"/>
      <point x="63" y="605"/>
      <point x="78" y="464" type="curve"/>
      <point x="31" y="474" type="line"/>
      <point x="22" y="634"/>
      <point x="98" y="695"/>
      <point x="184" y="695" type="curve" smooth="yes"/>
      <point x="280" y="695"/>
      <point x="339" y="622"/>
      <point x="339" y="522" type="curve"/>
      <point x="339" y="264"/>
      <point x="112" y="331"/>
      <point x="112" y="18" type="curve"/>
      <point x="76" y="46" type="line"/>
      <point x="341" y="46" type="line"/>
    </contour>
  </outline>
</glyph>
<glyph name="three" format="1">
  <advance width="393"/>
  <unicode hex="0033"/>
  <outline>
    <contour>
      <point x="139" y="336" type="line"/>
      <point x="139" y="386" type="line"/>
      <point x="185" y="386" type="line" smooth="yes"/>
      <point x="288" y="386"/>
      <point x="363" y="311"/>
      <point x="363" y="191" type="curve"/>
      <point x="363" y="61"/>
      <point x="291" y="-12"/>
      <point x="195" y="-12" type="curve" smooth="yes"/>
      <point x="109" y="-12"/>
      <point x="39" y="54"/>
      <point x="30" y="154" type="curve"/>
      <point x="77" y="173" type="line"/>
      <point x="85" y="92"/>
      <point x="127" y="35"/>
      <point x="195" y="35" type="curve" smooth="yes"/>
      <point x="263" y="35"/>
      <point x="313" y="99"/>
      <point x="313" y="191" type="curve"/>
      <point x="313" y="283"/>
      <point x="258" y="336"/>
      <point x="185" y="336" type="curve" smooth="yes"/>
    </contour>
    <contour>
      <point x="139" y="386" type="line"/>
      <point x="185" y="386" type="line" smooth="yes"/>
      <point x="244" y="386"/>
      <point x="289" y="431"/>
      <point x="289" y="509" type="curve"/>
      <point x="289" y="590"/>
      <point x="248" y="648"/>
      <point x="192" y="648" type="curve" smooth="yes"/>
      <point x="139" y="648"/>
      <point x="97" y="614"/>
      <point x="90" y="517" type="curve"/>
      <point x="46" y="534" type="line"/>
      <point x="57" y="657"/>
      <point x="119" y="695"/>
      <point x="192" y="695" type="curve" smooth="yes"/>
      <point x="277" y="695"/>
      <point x="339" y="623"/>
      <point x="339" y="509" type="curve"/>
      <point x="339" y="403"/>
      <point x="275" y="336"/>
      <point x="185" y="336" type="curve" smooth="yes"/>
      <point x="139" y="336" type="line"/>
    </contour>
  </outline>
</glyph>
<glyph name="four" format="1">
  <advance width="391"/>
  <unicode hex="0034"/>
  <outline>
    <contour>
      <point x="30" y="200" type="line"/>
      <point x="228" y="678" type="line"/>
      <point x="262" y="651" type="line"/>
      <point x="66" y="175" type="line"/>
    </contour>
    <contour>
      <point x="361" y="154" type="line"/>
      <point x="30" y="154" type="line"/>
      <point x="30" y="200" type="line"/>
      <point x="361" y="200" type="line"/>
    </contour>
    <contour>
      <point x="228" y="0" type="line"/>
      <point x="228" y="678" type="line"/>
      <point x="278" y="678" type="line"/>
      <point x="278" y="0" type="line"/>
    </contour>
  </outline>
</glyph>
<glyph name="five" format="1">
  <advance width="378"/>
  <unicode hex="0035"/>
  <outline>
    <contour>
      <point x="60" y="325" type="line" smooth="yes"/>
      <point x="91" y="685" type="line"/>
      <point x="326" y="685" type="line"/>
      <point x="326" y="638" type="line"/>
      <point x="104" y="638" type="line"/>
      <point x="138" y="666" type="line"/>
      <point x="103" y="313" type="line"/>
    </contour>
    <contour>
      <point x="103" y="313" type="curve"/>
      <point x="74" y="324" type="line"/>
      <point x="95" y="410"/>
      <point x="141" y="454"/>
      <point x="195" y="454" type="curve" smooth="yes"/>
      <point x="280" y="454"/>
      <point x="338" y="354"/>
      <point x="338" y="225" type="curve" smooth="yes"/>
      <point x="338" y="92"/>
      <point x="283" y="-12"/>
      <point x="186" y="-12" type="curve" smooth="yes"/>
      <point x="119" y="-12"/>
      <point x="47" y="39"/>
      <point x="30" y="137" type="curve"/>
      <point x="71" y="161" type="line"/>
      <point x="83" y="83"/>
      <point x="135" y="35"/>
      <point x="186" y="35" type="curve" smooth="yes"/>
      <point x="254" y="35"/>
      <point x="285" y="118"/>
      <point x="288" y="225" type="curve" smooth="yes"/>
      <point x="291" y="324"/>
      <point x="253" y="408"/>
      <point x="198" y="408" type="curve" smooth="yes"/>
      <point x="157" y="408"/>
      <point x="128" y="372"/>
    </contour>
  </outline>
</glyph>
<glyph name="six" format="1">
  <advance width="367"/>
  <unicode hex="0036"/>
  <outline>
    <contour>
      <point x="55" y="228" type="line"/>
      <point x="65" y="367"/>
      <point x="119" y="452"/>
      <point x="189" y="452" type="curve"/>
      <point x="274" y="452"/>
      <point x="337" y="369"/>
      <point x="337" y="217" type="curve" smooth="yes"/>
      <point x="337" y="86"/>
      <point x="272" y="-12"/>
      <point x="186" y="-12" type="curve"/>
      <point x="76" y="-12"/>
      <point x="30" y="147"/>
      <point x="30" y="306" type="curve" smooth="yes"/>
      <point x="30" y="516"/>
      <point x="86" y="695"/>
      <point x="204" y="695" type="curve"/>
      <point x="257" y="695"/>
      <point x="308" y="661"/>
      <point x="326" y="566" type="curve"/>
      <point x="288" y="540" type="line"/>
      <point x="272" y="619"/>
      <point x="242" y="648"/>
      <point x="207" y="648" type="curve"/>
      <point x="117" y="648"/>
      <point x="82" y="475"/>
      <point x="82" y="306" type="curve" smooth="yes"/>
      <point x="82" y="173"/>
      <point x="106" y="35"/>
      <point x="186" y="35" type="curve"/>
      <point x="243" y="35"/>
      <point x="284" y="113"/>
      <point x="287" y="217" type="curve" smooth="yes"/>
      <point x="290" y="324"/>
      <point x="247" y="406"/>
      <point x="189" y="406" type="curve"/>
      <point x="137" y="406"/>
      <point x="85" y="327"/>
      <point x="86" y="213" type="curve"/>
    </contour>
  </outline>
</glyph>
<glyph name="seven" format="1">
  <advance width="315"/>
  <unicode hex="0037"/>
  <outline>
    <contour>
      <point x="285" y="638" type="line"/>
      <point x="154" y="485"/>
      <point x="136" y="250"/>
      <point x="136" y="0" type="curve"/>
      <point x="86" y="0" type="line"/>
      <point x="86" y="258"/>
      <point x="109" y="497"/>
      <point x="243" y="656" type="curve"/>
    </contour>
    <contour>
      <point x="30" y="685" type="line"/>
      <point x="285" y="685" type="line"/>
      <point x="285" y="638" type="line"/>
      <point x="30" y="638" type="line"/>
    </contour>
  </outline>
</glyph>
<glyph name="eight" format="1">
  <advance width="386"/>
  <unicode hex="0038"/>
  <outline>
    <contour>
      <point x="188" y="357" type="curve"/>
      <point x="114" y="357"/>
      <point x="55" y="422"/>
      <point x="55" y="521" type="curve" smooth="yes"/>
      <point x="55" y="629"/>
      <point x="116" y="695"/>
      <point x="188" y="695" type="curve" smooth="yes"/>
      <point x="266" y="695"/>
      <point x="331" y="629"/>
      <point x="331" y="521" type="curve" smooth="yes"/>
      <point x="331" y="422"/>
      <point x="267" y="357"/>
    </contour>
    <contour>
      <point x="188" y="405" type="curve" smooth="yes"/>
      <point x="243" y="405"/>
      <point x="281" y="456"/>
      <point x="281" y="521" type="curve" smooth="yes"/>
      <point x="281" y="593"/>
      <point x="243" y="649"/>
      <point x="188" y="649" type="curve" smooth="yes"/>
      <point x="139" y="649"/>
      <point x="105" y="593"/>
      <point x="105" y="521" type="curve" smooth="yes"/>
      <point x="105" y="456"/>
      <point x="139" y="405"/>
    </contour>
    <contour>
      <point x="188" y="33" type="curve" smooth="yes"/>
      <point x="260" y="33"/>
      <point x="306" y="111"/>
      <point x="306" y="198" type="curve" smooth="yes"/>
      <point x="306" y="290"/>
      <point x="257" y="357"/>
      <point x="188" y="357" type="curve"/>
      <point x="125" y="357"/>
      <point x="80" y="290"/>
      <point x="80" y="198" type="curve" smooth="yes"/>
      <point x="80" y="111"/>
      <point x="122" y="33"/>
    </contour>
    <contour>
      <point x="188" y="-12" type="curve" smooth="yes"/>
      <point x="91" y="-12"/>
      <point x="30" y="72"/>
      <point x="30" y="198" type="curve" smooth="yes"/>
      <point x="30" y="329"/>
      <point x="102" y="405"/>
      <point x="188" y="405" type="curve" smooth="yes"/>
      <point x="280" y="405"/>
      <point x="356" y="329"/>
      <point x="356" y="198" type="curve" smooth="yes"/>
      <point x="356" y="72"/>
      <point x="291" y="-12"/>
    </contour>
  </outline>
</glyph>
<glyph name="less" format="1">
  <advance width="472"/>
  <unicode hex="003C"/>
  <outline>
    <contour>
      <point x="358" y="-83" type="line"/>
      <point x="395" y="-49" type="line"/>
      <point x="144" y="290" type="line"/>
      <point x="145" y="261" type="line"/>
      <point x="395" y="612" type="line"/>
      <point x="358" y="643" type="line"/>
      <point x="90" y="275" type="line"/>
    </contour>
  </outline>
</glyph>
<glyph name="question" format="1">
  <advance width="449"/>
  <unicode hex="003F"/>
  <outline>
    <contour>
      <point x="198" y="155" type="line"/>
      <point x="198" y="233" type="line" smooth="yes"/>
      <point x="198" y="392.06741573"/>
      <point x="310.0" y="399.853932584"/>
      <point x="310" y="530" type="curve"/>
      <point x="310.0" y="610.0"/>
      <point x="275.866666667" y="650.0"/>
      <point x="230" y="650" type="curve" smooth="yes"/>
      <point x="174.975609756" y="650.0"/>
      <point x="138" y="606"/>
      <point x="136" y="509" type="curve"/>
      <point x="90" y="524" type="line"/>
      <point x="99" y="640"/>
      <point x="148.0" y="695.0"/>
      <point x="230" y="695" type="curve" smooth="yes"/>
      <point x="304.1" y="695.0"/>
      <point x="360.0" y="640.0"/>
      <point x="360" y="530" type="curve"/>
      <point x="360.0" y="370.05904059"/>
      <point x="248" y="362.284132841"/>
      <point x="248" y="229" type="curve" smooth="yes"/>
      <point x="248" y="155" type="line"/>
    </contour>
    <component base="dotaccent" xOffset="128" yOffset="-595"/>
  </outline>
</glyph>
<glyph name="A" format="1">
  <advance width="411"/>
  <unicode hex="0041"/>
  <outline>
    <contour>
      <point x="327" y="204" type="line"/>
      <point x="84" y="204" type="line"/>
      <point x="84" y="251" type="line"/>
      <point x="327" y="251" type="line"/>
    </contour>
    <contour>
      <point x="406" y="0" type="line"/>
      <point x="351" y="0" type="line"/>
      <point x="180" y="685" type="line"/>
      <point x="234" y="685" type="line"/>
    </contour>
    <contour>
      <point x="5" y="0" type="line"/>
      <point x="173" y="685" type="line"/>
      <point x="227" y="685" type="line"/>
      <point x="60" y="0" type="line"/>
    </contour>
    <contour>
      <point x="125" y="685" type="move" name="top"/>
    </contour>
    <contour>
      <point x="403" y="0" type="move" name="ogonek"/>
    </contour>
  </outline>
</glyph>
<glyph name="B" format="1">
  <advance width="379"/>
  <unicode hex="0042"/>
  <outline>
    <contour>
      <point x="255" y="511" type="curve" smooth="yes"/>
      <point x="255" y="579"/>
      <point x="225" y="638"/>
      <point x="166" y="638" type="curve" smooth="yes"/>
      <point x="75" y="638" type="line"/>
      <point x="75" y="685" type="line"/>
      <point x="176" y="685" type="line" smooth="yes"/>
      <point x="254" y="685"/>
      <point x="305" y="609"/>
      <point x="305" y="516" type="curve" smooth="yes"/>
      <point x="305" y="408"/>
      <point x="259" y="340"/>
      <point x="165" y="340" type="curve" smooth="yes"/>
      <point x="105" y="340" type="line"/>
      <point x="105" y="388" type="line"/>
      <point x="178" y="388" type="line" smooth="yes"/>
      <point x="225" y="388"/>
      <point x="255" y="435"/>
    </contour>
    <contour>
      <point x="299" y="195" type="curve" smooth="yes"/>
      <point x="299" y="280"/>
      <point x="249" y="340"/>
      <point x="175" y="340" type="curve" smooth="yes"/>
      <point x="55" y="340" type="line"/>
      <point x="55" y="388" type="line"/>
      <point x="158" y="388" type="line" smooth="yes"/>
      <point x="274" y="388"/>
      <point x="349" y="316"/>
      <point x="349" y="195" type="curve" smooth="yes"/>
      <point x="349" y="70"/>
      <point x="293" y="0"/>
      <point x="171" y="0" type="curve" smooth="yes"/>
      <point x="55" y="0" type="line"/>
      <point x="55" y="47" type="line"/>
      <point x="179" y="47" type="line" smooth="yes"/>
      <point x="258" y="47"/>
      <point x="299" y="107"/>
    </contour>
    <component base="I"/>
  </outline>
</glyph>
<glyph name="C" format="1">
  <advance width="398"/>
  <unicode hex="0043"/>
  <outline>
    <contour>
      <point x="318" y="477" type="line"/>
      <point x="298" y="577"/>
      <point x="263" y="646"/>
      <point x="214" y="646" type="curve"/>
      <point x="141" y="646"/>
      <point x="89" y="510"/>
      <point x="89" y="341" type="curve" smooth="yes"/>
      <point x="89" y="161"/>
      <point x="136" y="38"/>
      <point x="215" y="38" type="curve"/>
      <point x="265" y="38"/>
      <point x="297" y="96"/>
      <point x="321" y="191" type="curve"/>
      <point x="368" y="169" type="line"/>
      <point x="342" y="63"/>
      <point x="293" y="-12"/>
      <point x="217" y="-12" type="curve"/>
      <point x="103" y="-12"/>
      <point x="39" y="133"/>
      <point x="39" y="337" type="curve" smooth="yes"/>
      <point x="39" y="541"/>
      <point x="110" y="695"/>
      <point x="218" y="695" type="curve"/>
      <point x="288" y="695"/>
      <point x="339" y="621"/>
      <point x="363" y="496" type="curve"/>
    </contour>
    <contour>
      <point x="198" y="685" type="move" name="top"/>
    </contour>
    <contour>
      <point x="198" y="0" type="move" name="bottom"/>
    </contour>
  </outline>
</glyph>
<glyph name="D" format="1">
  <advance width="395"/>
  <unicode hex="0044"/>
  <outline>
    <contour>
      <point x="314" y="343" type="curve" smooth="yes"/>
      <point x="314" y="522"/>
      <point x="252" y="636"/>
      <point x="138" y="636" type="curve" smooth="yes"/>
      <point x="55" y="636" type="line"/>
      <point x="55" y="685" type="line"/>
      <point x="153" y="685" type="line" smooth="yes"/>
      <point x="283" y="685"/>
      <point x="365" y="546"/>
      <point x="365" y="343" type="curve" smooth="yes"/>
      <point x="365" y="122"/>
      <point x="289" y="0"/>
      <point x="169" y="0" type="curve" smooth="yes"/>
      <point x="55" y="0" type="line"/>
      <point x="55" y="49" type="line"/>
      <point x="153" y="49" type="line" smooth="yes"/>
      <point x="262" y="49"/>
      <point x="314" y="146"/>
    </contour>
    <component base="I"/>
    <contour>
      <point x="238" y="685" type="move" name="top"/>
    </contour>
  </outline>
</glyph>
<glyph name="E" format="1">
  <advance width="362"/>
  <unicode hex="0045"/>
  <outline>
    <contour>
      <point x="267" y="334" type="line"/>
      <point x="55" y="334" type="line"/>
      <point x="55" y="380" type="line"/>
      <point x="267" y="380" type="line"/>
    </contour>
    <contour>
      <point x="55" y="0" type="line"/>
      <point x="55" y="47" type="line"/>
      <point x="327" y="47" type="line"/>
      <point x="327" y="0" type="line"/>
    </contour>
    <contour>
      <point x="317" y="638" type="line"/>
      <point x="55" y="638" type="line"/>
      <point x="55" y="685" type="line"/>
      <point x="317" y="685" type="line"/>
    </contour>
    <component base="I"/>
    <contour>
      <point x="285" y="685" type="move" name="top"/>
    </contour>
    <contour>
      <point x="481" y="0" type="move" name="ogonek"/>
    </contour>
    <contour>
      <point x="285" y="0" type="move" name="bottom"/>
    </contour>
  </outline>
</glyph>
<glyph name="F" format="1">
  <advance width="342"/>
  <unicode hex="0046"/>
  <outline>
    <contour>
      <point x="55" y="0" type="line"/>
    </contour>
    <contour>
      <point x="257" y="314" type="line"/>
      <point x="55" y="314" type="line"/>
      <point x="55" y="360" type="line"/>
      <point x="257" y="360" type="line"/>
    </contour>
    <contour>
      <point x="307" y="638" type="line"/>
      <point x="55" y="638" type="line"/>
      <point x="55" y="685" type="line"/>
      <point x="307" y="685" type="line"/>
    </contour>
    <component base="I"/>
  </outline>
</glyph>
<glyph name="G" format="1">
  <advance width="446"/>
  <unicode hex="0047"/>
  <outline>
    <contour>
      <point x="410" y="275" type="line"/>
      <point x="235" y="275" type="line"/>
      <point x="235" y="321" type="line"/>
      <point x="410" y="321" type="line"/>
    </contour>
    <contour>
      <point x="370" y="0" type="line"/>
      <point x="353" y="321" type="line"/>
      <point x="410" y="321" type="line"/>
      <point x="410" y="0" type="line"/>
    </contour>
    <contour>
      <point x="356" y="496" type="line"/>
      <point x="333" y="592"/>
      <point x="291" y="648"/>
      <point x="230" y="648" type="curve"/>
      <point x="139" y="648"/>
      <point x="84" y="515"/>
      <point x="84" y="347" type="curve" smooth="yes"/>
      <point x="84" y="173"/>
      <point x="125" y="36"/>
      <point x="225" y="36" type="curve"/>
      <point x="297" y="36"/>
      <point x="344" y="114"/>
      <point x="356" y="248" type="curve"/>
      <point x="387" y="233" type="line"/>
      <point x="373" y="82"/>
      <point x="323" y="-12"/>
      <point x="223" y="-12" type="curve"/>
      <point x="93" y="-12"/>
      <point x="34" y="142"/>
      <point x="34" y="343" type="curve" smooth="yes"/>
      <point x="34" y="548"/>
      <point x="110" y="695"/>
      <point x="234" y="695" type="curve"/>
      <point x="313" y="695"/>
      <point x="373" y="635"/>
      <point x="401" y="515" type="curve"/>
    </contour>
    <contour>
      <point x="234" y="685" type="move" name="top"/>
    </contour>
    <contour>
      <point x="236" y="0" type="move" name="bottom"/>
    </contour>
  </outline>
</glyph>
<glyph name="H" format="1">
  <advance width="428"/>
  <unicode hex="0048"/>
  <outline>
    <contour>
      <point x="359" y="334" type="line"/>
      <point x="65" y="334" type="line"/>
      <point x="65" y="380" type="line"/>
      <point x="359" y="380" type="line"/>
    </contour>
    <component base="I" xOffset="268"/>
    <component base="I"/>
    <contour>
      <point x="299" y="685" type="move" name="top"/>
    </contour>
  </outline>
</glyph>
<glyph name="J" format="1">
  <advance width="279"/>
  <unicode hex="004A"/>
  <outline>
    <contour>
      <point x="174" y="138" type="curve" smooth="yes"/>
      <point x="174" y="685" type="line"/>
      <point x="224" y="685" type="line"/>
      <point x="224" y="148" type="line" smooth="yes"/>
      <point x="224" y="39"/>
      <point x="184" y="-11"/>
      <point x="117" y="-11" type="curve"/>
      <point x="54" y="-11"/>
      <point x="19" y="50"/>
      <point x="18" y="132" type="curve"/>
      <point x="66" y="149" type="line"/>
      <point x="68" y="78"/>
      <point x="88" y="39"/>
      <point x="120" y="39" type="curve"/>
      <point x="153" y="39"/>
      <point x="174" y="79"/>
    </contour>
    <contour>
      <point x="355" y="685" type="move" name="top"/>
    </contour>
  </outline>
</glyph>
<glyph name="K" format="1">
  <advance width="376"/>
  <unicode hex="004B"/>
  <outline>
    <contour>
      <point x="297" y="685" type="line"/>
      <point x="360" y="685" type="line"/>
      <point x="94" y="182" type="line"/>
      <point x="63" y="219" type="line"/>
    </contour>
    <contour>
      <point x="313" y="0" type="line"/>
      <point x="156" y="357" type="line"/>
      <point x="195" y="388" type="line"/>
      <point x="373" y="0" type="line"/>
    </contour>
    <component base="I"/>
    <contour>
      <point x="294" y="685" type="move" name="top"/>
    </contour>
    <contour>
      <point x="294" y="0" type="move" name="bottom"/>
    </contour>
  </outline>
</glyph>
<glyph name="M" format="1">
  <advance width="596"/>
  <unicode hex="004D"/>
  <outline>
    <contour>
      <point x="323" y="0" type="line"/>
      <point x="273" y="0" type="line"/>
      <point x="456" y="685" type="line"/>
      <point x="511" y="685" type="line"/>
    </contour>
    <contour>
      <point x="268" y="0" type="line"/>
      <point x="84" y="685" type="line"/>
      <point x="139" y="685" type="line"/>
      <point x="318" y="0" type="line"/>
    </contour>
    <component base="I" xOffset="436"/>
    <component base="I"/>
  </outline>
</glyph>
<glyph name="N" format="1">
  <advance width="448"/>
  <unicode hex="004E"/>
  <outline>
    <contour>
      <point x="329" y="0" type="line"/>
      <point x="62" y="685" type="line"/>
      <point x="123" y="685" type="line"/>
      <point x="387" y="0" type="line"/>
    </contour>
    <contour>
      <point x="343" y="0" type="line"/>
      <point x="343" y="685" type="line"/>
      <point x="393" y="685" type="line"/>
      <point x="393" y="0" type="line"/>
    </contour>
    <contour>
      <point x="55" y="0" type="line"/>
      <point x="55" y="685" type="line"/>
      <point x="105" y="685" type="line"/>
      <point x="105" y="0" type="line"/>
    </contour>
    <contour>
      <point x="293" y="685" type="move" name="top"/>
    </contour>
    <contour>
      <point x="293" y="0" type="move" name="bottom"/>
    </contour>
  </outline>
</glyph>
<glyph name="O" format="1">
  <advance width="434"/>
  <unicode hex="004F"/>
  <outline>
    <contour>
      <point x="217" y="647" type="curve" smooth="yes"/>
      <point x="140" y="647"/>
      <point x="90" y="509"/>
      <point x="90" y="337" type="curve" smooth="yes"/>
      <point x="90" y="169"/>
      <point x="138" y="36"/>
      <point x="217" y="36" type="curve" smooth="yes"/>
      <point x="296" y="36"/>
      <point x="344" y="169"/>
      <point x="344" y="337" type="curve" smooth="yes"/>
      <point x="344" y="509"/>
      <point x="289" y="647"/>
    </contour>
    <contour>
      <point x="217" y="695" type="curve" smooth="yes"/>
      <point x="338" y="695"/>
      <point x="394" y="531"/>
      <point x="394" y="337" type="curve" smooth="yes"/>
      <point x="394" y="139"/>
      <point x="345" y="-12"/>
      <point x="217" y="-12" type="curve" smooth="yes"/>
      <point x="91" y="-12"/>
      <point x="40" y="139"/>
      <point x="40" y="337" type="curve" smooth="yes"/>
      <point x="40" y="539"/>
      <point x="96" y="695"/>
    </contour>
    <contour>
      <point x="217.0" y="685.0" type="move" name="top"/>
    </contour>
    <contour>
      <point x="217.0" y="0.0" type="move" name="bottom"/>
    </contour>
  </outline>
</glyph>
<glyph name="P" format="1">
  <advance width="331"/>
  <unicode hex="0050"/>
  <outline>
    <contour>
      <point x="258" y="485" type="curve"/>
      <point x="258" y="568"/>
      <point x="224" y="638"/>
      <point x="154" y="638" type="curve" smooth="yes"/>
      <point x="104" y="638" type="line"/>
      <point x="104" y="685" type="line"/>
      <point x="158" y="685" type="line" smooth="yes"/>
      <point x="265" y="685"/>
      <point x="308" y="581"/>
      <point x="308" y="485" type="curve" smooth="yes"/>
      <point x="308" y="389"/>
      <point x="270" y="281"/>
      <point x="156" y="281" type="curve" smooth="yes"/>
      <point x="104" y="281" type="line"/>
      <point x="104" y="328" type="line"/>
      <point x="161" y="328" type="line" smooth="yes"/>
      <point x="227" y="328"/>
      <point x="258" y="399"/>
    </contour>
    <component base="I"/>
  </outline>
</glyph>
<glyph name="Q" format="1">
  <advance width="453"/>
  <unicode hex="0051"/>
  <outline>
    <contour>
      <point x="373" y="-55" type="line"/>
      <point x="251" y="184" type="line"/>
      <point x="288" y="216" type="line"/>
      <point x="412" y="-21" type="line"/>
    </contour>
    <component base="O"/>
  </outline>
</glyph>
<glyph name="R" format="1">
  <advance width="362"/>
  <unicode hex="0052"/>
  <outline>
    <contour>
      <point x="207" y="303" type="line"/>
      <point x="324" y="0" type="line"/>
      <point x="264" y="0" type="line"/>
      <point x="158" y="288" type="line"/>
    </contour>
    <component base="P"/>
    <contour>
      <point x="255" y="684" type="move" name="top"/>
    </contour>
    <contour>
      <point x="264" y="0" type="move" name="bottom"/>
    </contour>
  </outline>
</glyph>
<glyph name="S" format="1">
  <advance width="335"/>
  <unicode hex="0053"/>
  <outline>
    <contour>
      <point x="251" y="517" type="line"/>
      <point x="251" y="627"/>
      <point x="215" y="644"/>
      <point x="177" y="644" type="curve"/>
      <point x="130" y="644"/>
      <point x="104" y="589"/>
      <point x="104" y="517" type="curve"/>
      <point x="104" y="374"/>
      <point x="310" y="374"/>
      <point x="310" y="186" type="curve"/>
      <point x="310" y="63"/>
      <point x="257" y="-12"/>
      <point x="163" y="-12" type="curve"/>
      <point x="73" y="-12"/>
      <point x="18" y="71"/>
      <point x="26" y="169" type="curve"/>
      <point x="70" y="176" type="line"/>
      <point x="72" y="82"/>
      <point x="113" y="37"/>
      <point x="168" y="37" type="curve"/>
      <point x="225" y="32"/>
      <point x="259" y="99"/>
      <point x="259" y="180" type="curve"/>
      <point x="259" y="342"/>
      <point x="54" y="327"/>
      <point x="54" y="522" type="curve"/>
      <point x="54" y="618"/>
      <point x="102" y="692"/>
      <point x="184" y="692" type="curve"/>
      <point x="233" y="692"/>
      <point x="300" y="661"/>
      <point x="294" y="526" type="curve"/>
    </contour>
    <contour>
      <point x="168" y="691" type="move" name="top"/>
    </contour>
    <contour>
      <point x="162" y="6" type="move" name="bottom"/>
    </contour>
  </outline>
</glyph>
<glyph name="U" format="1">
  <advance width="437"/>
  <unicode hex="0055"/>
  <outline>
    <contour>
      <point x="382" y="685" type="line"/>
      <point x="382" y="160" type="line" smooth="yes"/>
      <point x="382" y="40"/>
      <point x="318" y="-11"/>
      <point x="218" y="-11" type="curve" smooth="yes"/>
      <point x="118" y="-11"/>
      <point x="55" y="43"/>
      <point x="55" y="160" type="curve" smooth="yes"/>
      <point x="55" y="685" type="line"/>
      <point x="105" y="685" type="line"/>
      <point x="105" y="157" type="line" smooth="yes"/>
      <point x="105" y="71"/>
      <point x="163" y="38"/>
      <point x="218" y="38" type="curve" smooth="yes"/>
      <point x="273" y="38"/>
      <point x="332" y="67"/>
      <point x="332" y="157" type="curve" smooth="yes"/>
      <point x="332" y="685" type="line"/>
    </contour>
    <contour>
      <point x="219" y="685" type="move" name="top"/>
    </contour>
    <contour>
      <point x="297" y="0" type="move" name="ogonek"/>
    </contour>
    <contour>
      <point x="219" y="0" type="move" name="bottom"/>
    </contour>
  </outline>
</glyph>
<glyph name="V" format="1">
  <advance width="406"/>
  <unicode hex="0056"/>
  <outline>
    <contour>
      <point x="-12" y="685" type="line"/>
      <point x="43" y="685" type="line"/>
      <point x="227" y="0" type="line"/>
      <point x="173" y="0" type="line"/>
    </contour>
    <contour>
      <point x="419" y="685" type="line"/>
      <point x="234" y="0" type="line"/>
      <point x="179" y="0" type="line"/>
      <point x="363" y="685" type="line"/>
    </contour>
  </outline>
</glyph>
<glyph name="W" format="1">
  <advance width="664"/>
  <unicode hex="0057"/>
  <outline>
    <contour>
      <point x="-12" y="685" type="line"/>
      <point x="43" y="685" type="line"/>
      <point x="197" y="0" type="line"/>
      <point x="143" y="0" type="line"/>
    </contour>
    <contour>
      <point x="359" y="685" type="line"/>
      <point x="204" y="0" type="line"/>
      <point x="149" y="0" type="line"/>
      <point x="303" y="685" type="line"/>
    </contour>
    <contour>
      <point x="305" y="685" type="line"/>
      <point x="360" y="685" type="line"/>
      <point x="514" y="0" type="line"/>
      <point x="460" y="0" type="line"/>
    </contour>
    <contour>
      <point x="676" y="685" type="line"/>
      <point x="521" y="0" type="line"/>
      <point x="466" y="0" type="line"/>
      <point x="620" y="685" type="line"/>
    </contour>
  </outline>
</glyph>
<glyph name="X" format="1">
  <advance width="390"/>
  <unicode hex="0058"/>
  <outline>
    <contour>
      <point x="377" y="685" type="line"/>
      <point x="56" y="0" type="line"/>
      <point x="-4" y="0" type="line"/>
      <point x="317" y="685" type="line"/>
    </contour>
    <contour>
      <point x="5" y="685" type="line"/>
      <point x="65" y="685" type="line"/>
      <point x="394" y="0" type="line"/>
      <point x="334" y="0" type="line"/>
    </contour>
  </outline>
</glyph>
<glyph name="bracketleft" format="1">
  <advance width="314"/>
  <unicode hex="005B"/>
  <outline>
    <contour>
      <point x="329" y="-110" type="line"/>
      <point x="329" y="-156" type="line"/>
      <point x="55" y="-156" type="line"/>
      <point x="55" y="-110" type="line"/>
    </contour>
    <contour>
      <point x="329" y="760" type="line"/>
      <point x="329" y="714" type="line"/>
      <point x="55" y="714" type="line"/>
      <point x="55" y="760" type="line"/>
    </contour>
    <component base="bar" yOffset="29"/>
  </outline>
</glyph>
<glyph name="underscore" format="1">
  <advance width="565"/>
  <unicode hex="005F"/>
  <outline>
    <contour>
      <point x="0" y="0" type="line"/>
      <point x="565" y="0" type="line"/>
      <point x="565" y="-28" type="line"/>
      <point x="0" y="-28" type="line"/>
    </contour>
  </outline>
</glyph>
<glyph name="grave" format="1">
  <advance width="532"/>
  <unicode hex="0060"/>
  <outline>
    <component base="acute" xScale="-1.0" xOffset="526"/>
    <contour>
      <point x="283" y="510" type="move" name="_top"/>
    </contour>
  </outline>
</glyph>
<glyph name="a" format="1">
  <advance width="376"/>
  <unicode hex="0061"/>
  <outline>
    <contour>
      <point x="30" y="398" type="line"/>
      <point x="66" y="483"/>
      <point x="118" y="510"/>
      <point x="182" y="510" type="curve" smooth="yes"/>
      <point x="257" y="510"/>
      <point x="321" y="460"/>
      <point x="316" y="320" type="curve" smooth="yes"/>
      <point x="309" y="101" type="line" smooth="yes"/>
      <point x="308" y="67"/>
      <point x="318" y="38"/>
      <point x="371" y="43" type="curve"/>
      <point x="364" y="-5" type="line"/>
      <point x="295" y="-13"/>
      <point x="257" y="13"/>
      <point x="260" y="105" type="curve" smooth="yes"/>
      <point x="267" y="324" type="line" smooth="yes"/>
      <point x="270" y="426"/>
      <point x="227" y="460"/>
      <point x="182" y="460" type="curve"/>
      <point x="136" y="461"/>
      <point x="99" y="440"/>
      <point x="74" y="375" type="curve"/>
    </contour>
    <contour>
      <point x="290" y="242" type="line"/>
      <point x="219" y="251"/>
      <point x="77" y="256"/>
      <point x="77" y="138" type="curve"/>
      <point x="77" y="72"/>
      <point x="108" y="35"/>
      <point x="157" y="35" type="curve"/>
      <point x="201" y="35"/>
      <point x="264" y="90"/>
      <point x="264" y="199" type="curve"/>
      <point x="291" y="194" type="line"/>
      <point x="286" y="72"/>
      <point x="235" y="-12"/>
      <point x="149" y="-12" type="curve"/>
      <point x="83" y="-12"/>
      <point x="27" y="34"/>
      <point x="27" y="136" type="curve"/>
      <point x="27" y="273"/>
      <point x="153" y="304"/>
      <point x="292" y="288" type="curve"/>
    </contour>
    <contour>
      <point x="185" y="500" type="move" name="top"/>
    </contour>
    <contour>
      <point x="439" y="0" type="move" name="ogonek"/>
    </contour>
    <contour>
      <point x="131" y="0" type="move" name="bottom"/>
    </contour>
  </outline>
</glyph>
<glyph name="c" format="1">
  <advance width="380"/>
  <unicode hex="0063"/>
  <outline>
    <contour>
      <point x="299" y="349" type="line"/>
      <point x="291" y="427"/>
      <point x="257" y="462"/>
      <point x="211" y="462" type="curve" smooth="yes"/>
      <point x="131" y="462"/>
      <point x="83" y="381"/>
      <point x="83" y="248" type="curve" smooth="yes"/>
      <point x="83" y="119"/>
      <point x="124" y="35"/>
      <point x="216" y="35" type="curve" smooth="yes"/>
      <point x="259" y="35"/>
      <point x="296" y="74"/>
      <point x="308" y="136" type="curve"/>
      <point x="355" y="117" type="line"/>
      <point x="335" y="31"/>
      <point x="278" y="-12"/>
      <point x="214" y="-12" type="curve" smooth="yes"/>
      <point x="107" y="-12"/>
      <point x="33" y="67"/>
      <point x="33" y="245" type="curve" smooth="yes"/>
      <point x="33" y="415"/>
      <point x="109" y="510"/>
      <point x="209" y="510" type="curve" smooth="yes"/>
      <point x="279" y="510"/>
      <point x="333" y="467"/>
      <point x="346" y="366" type="curve"/>
    </contour>
    <contour>
      <point x="209" y="510" type="move" name="top"/>
    </contour>
    <contour>
      <point x="207" y="-12" type="move" name="bottom"/>
    </contour>
  </outline>
</glyph>
<glyph name="e" format="1">
  <advance width="376"/>
  <unicode hex="0065"/>
  <outline>
    <contour>
      <point x="66" y="279" type="line"/>
      <point x="310" y="279" type="line"/>
      <point x="300" y="231" type="line"/>
      <point x="66" y="231" type="line"/>
    </contour>
    <contour>
      <point x="341" y="125" type="line"/>
      <point x="313" y="27"/>
      <point x="253" y="-12"/>
      <point x="191" y="-12" type="curve" smooth="yes"/>
      <point x="99" y="-12"/>
      <point x="29" y="63"/>
      <point x="29" y="258" type="curve" smooth="yes"/>
      <point x="29" y="428"/>
      <point x="102" y="510"/>
      <point x="186" y="510" type="curve" smooth="yes"/>
      <point x="276" y="510"/>
      <point x="346" y="422"/>
      <point x="330" y="231" type="curve"/>
      <point x="280" y="231" type="line"/>
      <point x="299" y="386"/>
      <point x="249" y="462"/>
      <point x="185" y="462" type="curve" smooth="yes"/>
      <point x="123" y="462"/>
      <point x="79" y="390"/>
      <point x="79" y="248" type="curve" smooth="yes"/>
      <point x="79" y="99"/>
      <point x="121" y="36"/>
      <point x="194" y="36" type="curve" smooth="yes"/>
      <point x="236" y="36"/>
      <point x="274" y="70"/>
      <point x="297" y="146" type="curve"/>
    </contour>
    <contour>
      <point x="190" y="500" type="move" name="top"/>
    </contour>
    <contour>
      <point x="249" y="0" type="move" name="ogonek"/>
    </contour>
    <contour>
      <point x="194" y="0" type="move" name="bottom"/>
    </contour>
  </outline>
</glyph>
<glyph name="f" format="1">
  <advance width="217"/>
  <unicode hex="0066"/>
  <outline>
    <contour>
      <point x="19" y="452" type="line"/>
      <point x="19" y="500" type="line"/>
      <point x="202" y="500" type="line"/>
      <point x="202" y="452" type="line"/>
    </contour>
    <contour>
      <point x="129" y="0" type="line"/>
      <point x="79" y="0" type="line"/>
      <point x="79" y="606" type="line" smooth="yes"/>
      <point x="79" y="643"/>
      <point x="102" y="679"/>
      <point x="151" y="679" type="curve" smooth="yes"/>
      <point x="170" y="679"/>
      <point x="193" y="674"/>
      <point x="220" y="663" type="curve"/>
      <point x="202" y="619" type="line"/>
      <point x="184" y="627"/>
      <point x="170" y="630"/>
      <point x="160" y="630" type="curve" smooth="yes"/>
      <point x="138" y="630"/>
      <point x="129" y="612"/>
      <point x="129" y="589" type="curve" smooth="yes"/>
    </contour>
  </outline>
</glyph>
<glyph name="g" format="1">
  <advance width="394"/>
  <unicode hex="0067"/>
  <outline>
    <contour>
      <point x="382" y="429" type="line"/>
      <point x="332" y="447"/>
      <point x="287" y="410"/>
      <point x="287" y="328" type="curve"/>
      <point x="257" y="336" type="line"/>
      <point x="268" y="443"/>
      <point x="323" y="504"/>
      <point x="399" y="477" type="curve"/>
    </contour>
    <contour>
      <point x="175" y="190" type="line"/>
      <point x="142" y="177"/>
      <point x="100" y="175"/>
      <point x="100" y="127" type="curve"/>
      <point x="99.0994931435" y="31.5462732101"/>
      <point x="338" y="112"/>
      <point x="338" y="-70" type="curve"/>
      <point x="338" y="-170"/>
      <point x="295" y="-220"/>
      <point x="185" y="-220" type="curve"/>
      <point x="75" y="-220"/>
      <point x="30.0" y="-164.0"/>
      <point x="30" y="-87" type="curve"/>
      <point x="30" y="-13"/>
      <point x="68" y="39"/>
      <point x="137" y="47" type="curve"/>
      <point x="173" y="29" type="line"/>
      <point x="118" y="15"/>
      <point x="79" y="-14"/>
      <point x="79" y="-83" type="curve"/>
      <point x="79.0" y="-142.0"/>
      <point x="119.363636364" y="-173.0"/>
      <point x="190" y="-173" type="curve"/>
      <point x="255.704545455" y="-173.0"/>
      <point x="287" y="-129"/>
      <point x="288" y="-75" type="curve"/>
      <point x="288" y="62"/>
      <point x="49.1010052958" y="-13.9502109209"/>
      <point x="50" y="120" type="curve"/>
      <point x="50" y="180"/>
      <point x="92" y="197"/>
      <point x="150" y="210" type="curve"/>
    </contour>
    <contour>
      <point x="52" y="337" type="line"/>
      <point x="52" y="337" type="line" smooth="yes"/>
      <point x="52" y="448"/>
      <point x="100" y="510"/>
      <point x="176" y="510" type="curve" smooth="yes"/>
      <point x="253" y="510"/>
      <point x="300" y="448"/>
      <point x="300" y="337" type="curve" smooth="yes"/>
      <point x="300" y="229"/>
      <point x="253" y="171"/>
      <point x="176" y="171" type="curve" smooth="yes"/>
      <point x="100" y="171"/>
      <point x="52" y="229"/>
      <point x="52" y="337" type="curve"/>
      <point x="101" y="337" type="line"/>
      <point x="101" y="259"/>
      <point x="127" y="216"/>
      <point x="176" y="216" type="curve" smooth="yes"/>
      <point x="225" y="216"/>
      <point x="251" y="259"/>
      <point x="251" y="337" type="curve" smooth="yes"/>
      <point x="251" y="418"/>
      <point x="225" y="465"/>
      <point x="176" y="465" type="curve" smooth="yes"/>
      <point x="127" y="465"/>
      <point x="101" y="418"/>
      <point x="101" y="337" type="curve" smooth="yes"/>
      <point x="101" y="337" type="line"/>
    </contour>
    <contour>
      <point x="184" y="500" type="move" name="top"/>
    </contour>
  </outline>
</glyph>
<glyph name="h" format="1">
  <advance width="405"/>
  <unicode hex="0068"/>
  <outline>
    <component base="n"/>
    <component base="l"/>
    <contour>
      <point x="261" y="500" type="move" name="top"/>
    </contour>
  </outline>
</glyph>
<glyph name="j" format="1">
  <advance width="169"/>
  <unicode hex="006A"/>
  <outline>
    <contour>
      <point x="72" y="0" type="line"/>
      <point x="122" y="12" type="line"/>
      <point x="122" y="-33" type="line" smooth="yes"/>
      <point x="122" y="-95"/>
      <point x="86" y="-139"/>
      <point x="10" y="-115" type="curve"/>
      <point x="15" y="-66" type="line"/>
      <point x="57" y="-77"/>
      <point x="72" y="-64"/>
      <point x="72" y="-18" type="curve" smooth="yes"/>
    </contour>
    <component base="dotaccent"/>
    <component base="dotlessi" xOffset="17"/>
  </outline>
</glyph>
<glyph name="k" format="1">
  <advance width="341"/>
  <unicode hex="006B"/>
  <outline>
    <contour>
      <point x="65" y="191" type="line"/>
      <point x="243" y="500" type="line"/>
      <point x="302" y="500" type="line"/>
      <point x="90" y="140" type="line"/>
    </contour>
    <contour>
      <point x="276" y="0" type="line"/>
      <point x="144" y="284" type="line"/>
      <point x="175" y="322" type="line"/>
      <point x="334" y="0" type="line"/>
    </contour>
    <component base="l"/>
    <contour>
      <point x="265" y="-1" type="move" name="bottom"/>
    </contour>
  </outline>
</glyph>
<glyph name="m" format="1">
  <advance width="649"/>
  <unicode hex="006D"/>
  <outline>
    <contour>
      <point x="544" y="0" type="line"/>
      <point x="544" y="375" type="line" smooth="yes"/>
      <point x="544" y="435"/>
      <point x="506" y="464"/>
      <point x="462" y="464" type="curve" smooth="yes"/>
      <point x="403" y="464"/>
      <point x="349" y="414"/>
      <point x="349" y="331" type="curve"/>
      <point x="324" y="331" type="line"/>
      <point x="324" y="451"/>
      <point x="400" y="510"/>
      <point x="474" y="510" type="curve"/>
      <point x="542" y="510"/>
      <point x="594" y="459"/>
      <point x="594" y="387" type="curve" smooth="yes"/>
      <point x="594" y="0" type="line"/>
    </contour>
    <component base="n"/>
  </outline>
</glyph>
<glyph name="n" format="1">
  <advance width="405"/>
  <unicode hex="006E"/>
  <outline>
    <contour>
      <point x="300" y="0" type="line"/>
      <point x="300" y="375" type="line" smooth="yes"/>
      <point x="300" y="435"/>
      <point x="262" y="464"/>
      <point x="218" y="464" type="curve" smooth="yes"/>
      <point x="159" y="464"/>
      <point x="105" y="414"/>
      <point x="105" y="331" type="curve"/>
      <point x="81" y="331" type="line"/>
      <point x="81" y="451"/>
      <point x="156" y="510"/>
      <point x="230" y="510" type="curve"/>
      <point x="299" y="510"/>
      <point x="350" y="459"/>
      <point x="350" y="387" type="curve" smooth="yes"/>
      <point x="350" y="0" type="line"/>
    </contour>
    <component base="dotlessi"/>
    <contour>
      <point x="242" y="500" type="move" name="top"/>
    </contour>
    <contour>
      <point x="240" y="0" type="move" name="bottom"/>
    </contour>
  </outline>
</glyph>
<glyph name="o" format="1">
  <advance width="389"/>
  <unicode hex="006F"/>
  <outline>
    <contour>
      <point x="195" y="35" type="curve" smooth="yes"/>
      <point x="266" y="35"/>
      <point x="313" y="126"/>
      <point x="313" y="249" type="curve" smooth="yes"/>
      <point x="313" y="373"/>
      <point x="266" y="463"/>
      <point x="195" y="463" type="curve" smooth="yes"/>
      <point x="123" y="463"/>
      <point x="76" y="373"/>
      <point x="76" y="249" type="curve" smooth="yes"/>
      <point x="76" y="126"/>
      <point x="123" y="35"/>
    </contour>
    <contour>
      <point x="195" y="-12" type="curve" smooth="yes"/>
      <point x="96" y="-12"/>
      <point x="26" y="93"/>
      <point x="26" y="249" type="curve" smooth="yes"/>
      <point x="26" y="405"/>
      <point x="98" y="510"/>
      <point x="195" y="510" type="curve" smooth="yes"/>
      <point x="291" y="510"/>
      <point x="363" y="405"/>
      <point x="363" y="249" type="curve" smooth="yes"/>
      <point x="363" y="93"/>
      <point x="293" y="-12"/>
    </contour>
    <contour>
      <point x="265" y="500" type="move" name="top"/>
    </contour>
    <contour>
      <point x="265" y="0" type="move" name="bottom"/>
    </contour>
  </outline>
</glyph>
<glyph name="r" format="1">
  <advance width="253"/>
  <unicode hex="0072"/>
  <outline>
    <contour>
      <point x="227" y="440" type="line"/>
      <point x="213" y="459"/>
      <point x="197" y="463"/>
      <point x="181" y="463" type="curve" smooth="yes"/>
      <point x="140" y="463"/>
      <point x="105" y="417"/>
      <point x="105" y="339" type="curve"/>
      <point x="84" y="339" type="line"/>
      <point x="84" y="457"/>
      <point x="133" y="510"/>
      <point x="186" y="510" type="curve" smooth="yes"/>
      <point x="207" y="510"/>
      <point x="231" y="503"/>
      <point x="247" y="481" type="curve"/>
    </contour>
    <component base="dotlessi"/>
    <contour>
      <point x="219" y="500" type="move" name="top"/>
    </contour>
    <contour>
      <point x="220" y="0" type="move" name="bottom"/>
    </contour>
  </outline>
</glyph>
<glyph name="s" format="1">
  <advance width="323"/>
  <unicode hex="0073"/>
  <outline>
    <contour>
      <point x="254" y="365" type="line"/>
      <point x="247" y="443"/>
      <point x="204" y="461"/>
      <point x="161" y="461" type="curve" smooth="yes"/>
      <point x="117" y="461"/>
      <point x="86" y="428"/>
      <point x="86" y="376" type="curve"/>
      <point x="86" y="329"/>
      <point x="110" y="309"/>
      <point x="147" y="289" type="curve" smooth="yes"/>
      <point x="185" y="274" type="line" smooth="yes"/>
      <point x="240" y="249"/>
      <point x="300" y="214"/>
      <point x="300" y="129" type="curve"/>
      <point x="300" y="45"/>
      <point x="238" y="-12"/>
      <point x="161" y="-12" type="curve" smooth="yes"/>
      <point x="96" y="-12"/>
      <point x="34" y="37"/>
      <point x="23" y="103" type="curve"/>
      <point x="63" y="134" type="line"/>
      <point x="72" y="77"/>
      <point x="113" y="37"/>
      <point x="161" y="37" type="curve"/>
      <point x="207" y="37"/>
      <point x="252" y="66"/>
      <point x="252" y="125" type="curve"/>
      <point x="252" y="185"/>
      <point x="207" y="207"/>
      <point x="171" y="228" type="curve" smooth="yes"/>
      <point x="134" y="242" type="line" smooth="yes"/>
      <point x="84" y="268"/>
      <point x="38" y="296"/>
      <point x="38" y="378" type="curve"/>
      <point x="38" y="454"/>
      <point x="90" y="510"/>
      <point x="161" y="510" type="curve" smooth="yes"/>
      <point x="222" y="510"/>
      <point x="281" y="483"/>
      <point x="292" y="398" type="curve"/>
    </contour>
    <contour>
      <point x="152" y="500" type="move" name="top"/>
    </contour>
    <contour>
      <point x="161" y="0" type="move" name="bottom"/>
    </contour>
  </outline>
</glyph>
<glyph name="t" format="1">
  <advance width="218"/>
  <unicode hex="0074"/>
  <outline>
    <contour>
      <point x="11" y="500" type="line"/>
      <point x="194" y="500" type="line"/>
      <point x="194" y="452" type="line"/>
      <point x="11" y="452" type="line"/>
    </contour>
    <contour>
      <point x="113" y="624" type="line"/>
      <point x="113" y="87" type="line" smooth="yes"/>
      <point x="113" y="57"/>
      <point x="124" y="43"/>
      <point x="151" y="43" type="curve" smooth="yes"/>
      <point x="163" y="43"/>
      <point x="175" y="44"/>
      <point x="192" y="49" type="curve"/>
      <point x="196" y="3" type="line"/>
      <point x="175" y="-2"/>
      <point x="158" y="-5"/>
      <point x="141" y="-5" type="curve" smooth="yes"/>
      <point x="87" y="-5"/>
      <point x="63" y="26"/>
      <point x="63" y="71" type="curve" smooth="yes"/>
      <point x="63" y="599" type="line"/>
    </contour>
  </outline>
</glyph>
<glyph name="u" format="1">
  <advance width="405"/>
  <unicode hex="0075"/>
  <outline>
    <component base="n" xScale="-1.0" yScale="-1.0" xOffset="405" yOffset="500"/>
    <contour>
      <point x="156" y="500" type="move" name="top"/>
    </contour>
    <contour>
      <point x="350" y="0" type="move" name="ogonek"/>
    </contour>
    <contour>
      <point x="128" y="0" type="move" name="bottom"/>
    </contour>
  </outline>
</glyph>
<glyph name="v" format="1">
  <advance width="314"/>
  <unicode hex="0076"/>
  <outline>
    <contour>
      <point x="185" y="0" type="line"/>
      <point x="134" y="0" type="line"/>
      <point x="258" y="500" type="line"/>
      <point x="312" y="500" type="line"/>
    </contour>
    <contour>
      <point x="129" y="0" type="line"/>
      <point x="2" y="500" type="line"/>
      <point x="56" y="500" type="line"/>
      <point x="180" y="0" type="line"/>
    </contour>
    <contour>
      <point x="157" y="500" type="move" name="top"/>
    </contour>
  </outline>
</glyph>
<glyph name="x" format="1">
  <advance width="336"/>
  <unicode hex="0078"/>
  <outline>
    <contour>
      <point x="71" y="0" type="line"/>
      <point x="15" y="0" type="line"/>
      <point x="252" y="500" type="line"/>
      <point x="307" y="500" type="line"/>
    </contour>
    <contour>
      <point x="280" y="0" type="line"/>
      <point x="33" y="500" type="line"/>
      <point x="91" y="500" type="line"/>
      <point x="337" y="0" type="line"/>
    </contour>
  </outline>
</glyph>
<glyph name="y" format="1">
  <advance width="340"/>
  <unicode hex="0079"/>
  <outline>
    <contour>
      <point x="195" y="0" type="line" smooth="yes"/>
      <point x="167" y="-111"/>
      <point x="103" y="-136"/>
      <point x="47" y="-136" type="curve" smooth="yes"/>
      <point x="20" y="-136"/>
      <point x="-11" y="-129"/>
      <point x="-37" y="-116" type="curve"/>
      <point x="-26" y="-65" type="line"/>
      <point x="-6" y="-76"/>
      <point x="18" y="-83"/>
      <point x="41" y="-83" type="curve" smooth="yes"/>
      <point x="81" y="-83"/>
      <point x="122" y="-67"/>
      <point x="139" y="0" type="curve" smooth="yes"/>
      <point x="268" y="500" type="line"/>
      <point x="322" y="500" type="line"/>
    </contour>
    <contour>
      <point x="139" y="0" type="line"/>
      <point x="12" y="500" type="line"/>
      <point x="66" y="500" type="line"/>
      <point x="190" y="0" type="line"/>
    </contour>
    <contour>
      <point x="172" y="500" type="move" name="top"/>
    </contour>
  </outline>
</glyph>
<glyph name="z" format="1">
  <advance width="335"/>
  <unicode hex="007A"/>
  <outline>
    <contour>
      <point x="41" y="500" type="line"/>
      <point x="304" y="500" type="line"/>
      <point x="304" y="454" type="line"/>
      <point x="41" y="454" type="line"/>
    </contour>
    <contour>
      <point x="61" y="14" type="line"/>
      <point x="26" y="46" type="line"/>
      <point x="267" y="483" type="line"/>
      <point x="304" y="454" type="line"/>
    </contour>
    <contour>
      <point x="26" y="46" type="line"/>
      <point x="310" y="46" type="line"/>
      <point x="310" y="0" type="line"/>
      <point x="26" y="0" type="line"/>
    </contour>
    <contour>
      <point x="158" y="500" type="move" name="top"/>
    </contour>
  </outline>
</glyph>
<glyph name="asciitilde" format="1">
  <advance width="520"/>
  <unicode hex="007E"/>
  <outline>
    <contour>
      <point x="50" y="186" type="line"/>
      <point x="60" y="268"/>
      <point x="101" y="292"/>
      <point x="154" y="292" type="curve" smooth="yes"/>
      <point x="218" y="292"/>
      <point x="304" y="220"/>
      <point x="364" y="220" type="curve" smooth="yes"/>
      <point x="414" y="220"/>
      <point x="452" y="239"/>
      <point x="460" y="303" type="curve"/>
      <point x="480" y="303" type="line"/>
      <point x="469" y="223"/>
      <point x="424" y="199"/>
      <point x="366" y="199" type="curve" smooth="yes"/>
      <point x="301" y="199"/>
      <point x="215" y="271"/>
      <point x="155" y="271" type="curve" smooth="yes"/>
      <point x="110" y="271"/>
      <point x="77" y="251"/>
      <point x="70" y="186" type="curve"/>
    </contour>
  </outline>
</glyph>
<glyph name="paragraph" format="1">
  <advance width="626"/>
  <unicode hex="00B6"/>
  <outline>
    <contour>
      <point x="249" y="365" type="line"/>
      <point x="209" y="365" type="line" smooth="yes"/>
      <point x="77" y="365"/>
      <point x="28" y="447"/>
      <point x="28" y="523" type="curve"/>
      <point x="28" y="602"/>
      <point x="80" y="685"/>
      <point x="207" y="685" type="curve" smooth="yes"/>
      <point x="249" y="685" type="line"/>
    </contour>
    <contour>
      <point x="299" y="0" type="line"/>
      <point x="249" y="0" type="line"/>
      <point x="249" y="685" type="line"/>
      <point x="299" y="685" type="line"/>
    </contour>
    <contour>
      <point x="609" y="640" type="line"/>
      <point x="249" y="640" type="line"/>
      <point x="249" y="685" type="line"/>
      <point x="609" y="685" type="line"/>
    </contour>
    <contour>
      <point x="429" y="0" type="line"/>
      <point x="429" y="685" type="line"/>
      <point x="479" y="685" type="line"/>
      <point x="479" y="0" type="line"/>
    </contour>
  </outline>
</glyph>
<glyph name="cedilla" format="1">
  <advance width="630"/>
  <unicode hex="00B8"/>
  <outline>
    <contour>
      <point x="219" y="-1" type="line"/>
      <point x="154" y="-123" type="line"/>
      <point x="125" y="-109" type="line"/>
      <point x="159" y="-78"/>
      <point x="178" y="-60"/>
      <point x="209" y="-60" type="curve" smooth="yes"/>
      <point x="262" y="-60"/>
      <point x="315" y="-93"/>
      <point x="315" y="-172" type="curve" smooth="yes"/>
      <point x="315" y="-243"/>
      <point x="263" y="-294"/>
      <point x="203" y="-294" type="curve" smooth="yes"/>
      <point x="161" y="-294"/>
      <point x="110" y="-276"/>
      <point x="93" y="-215" type="curve"/>
      <point x="119" y="-195" type="line"/>
      <point x="139" y="-246"/>
      <point x="169" y="-254"/>
      <point x="204" y="-254" type="curve" smooth="yes"/>
      <point x="243" y="-254"/>
      <point x="275" y="-222"/>
      <point x="275" y="-172" type="curve" smooth="yes"/>
      <point x="275" y="-126"/>
      <point x="243" y="-98"/>
      <point x="209" y="-98" type="curve" smooth="yes"/>
      <point x="188" y="-98"/>
      <point x="167" y="-115"/>
      <point x="153" y="-131" type="curve"/>
      <point x="124" y="-109" type="line"/>
      <point x="192" y="19" type="line"/>
    </contour>
    <contour>
      <point x="239" y="0" type="move" name="_bottom"/>
    </contour>
  </outline>
</glyph>
<glyph name="Eth" format="1">
  <advance width="397"/>
  <unicode hex="00D0"/>
  <outline>
    <contour>
      <point x="-20" y="320" type="line"/>
      <point x="-20" y="365" type="line"/>
      <point x="284" y="365" type="line"/>
      <point x="284" y="320" type="line"/>
    </contour>
    <component base="D" xOffset="26"/>
  </outline>
</glyph>
<glyph name="ae" format="1">
  <advance width="611"/>
  <unicode hex="00E6"/>
  <outline>
    <contour>
      <point x="30" y="398" type="line"/>
      <point x="66" y="483"/>
      <point x="118" y="510"/>
      <point x="182" y="510" type="curve" smooth="yes"/>
      <point x="257" y="510"/>
      <point x="321" y="460"/>
      <point x="316" y="320" type="curve"/>
      <point x="309" y="137" type="line" smooth="yes"/>
      <point x="260" y="141" type="line"/>
      <point x="267" y="324" type="line" smooth="yes"/>
      <point x="271" y="426"/>
      <point x="227" y="460"/>
      <point x="182" y="460" type="curve"/>
      <point x="136" y="461"/>
      <point x="99" y="440"/>
      <point x="74" y="375" type="curve"/>
    </contour>
    <contour>
      <point x="290" y="242" type="line"/>
      <point x="219" y="251"/>
      <point x="77" y="256"/>
      <point x="77" y="138" type="curve"/>
      <point x="77" y="72"/>
      <point x="108" y="35"/>
      <point x="157" y="35" type="curve"/>
      <point x="201" y="35"/>
      <point x="264" y="90"/>
      <point x="264" y="199" type="curve"/>
      <point x="291" y="194" type="line"/>
      <point x="286" y="72"/>
      <point x="235" y="-12"/>
      <point x="149" y="-12" type="curve"/>
      <point x="83" y="-12"/>
      <point x="27" y="34"/>
      <point x="27" y="136" type="curve"/>
      <point x="27" y="273"/>
      <point x="153" y="304"/>
      <point x="292" y="288" type="curve"/>
    </contour>
    <component base="e" xOffset="236"/>
  </outline>
</glyph>
<glyph name="amacron" format="1">
  <advance width="376"/>
  <unicode hex="0101"/>
  <outline>
    <contour>
      <point x="346" y="636" type="line"/>
      <point x="30" y="636" type="line"/>
      <point x="30" y="685" type="line"/>
      <point x="346" y="685" type="line"/>
    </contour>
    <component base="a"/>
  </outline>
</glyph>
<glyph name="OE" format="1">
  <advance width="653"/>
  <unicode hex="0152"/>
  <outline>
    <contour>
      <point x="217" y="647" type="curve" smooth="yes"/>
      <point x="140" y="647"/>
      <point x="90" y="509"/>
      <point x="90" y="337" type="curve" smooth="yes"/>
      <point x="90" y="169"/>
      <point x="138" y="36"/>
      <point x="217" y="36" type="curve" smooth="yes"/>
      <point x="296" y="36"/>
      <point x="344" y="169"/>
      <point x="344" y="337" type="curve" smooth="yes"/>
      <point x="344" y="509"/>
      <point x="289" y="647"/>
    </contour>
    <contour>
      <point x="217" y="695" type="curve" smooth="yes"/>
      <point x="338" y="695"/>
      <point x="394" y="531"/>
      <point x="394" y="337" type="curve" smooth="yes"/>
      <point x="394" y="139"/>
      <point x="345" y="-12"/>
      <point x="217" y="-12" type="curve" smooth="yes"/>
      <point x="91" y="-12"/>
      <point x="40" y="139"/>
      <point x="40" y="337" type="curve" smooth="yes"/>
      <point x="40" y="539"/>
      <point x="96" y="695"/>
    </contour>
    <contour>
      <point x="558" y="334" type="line"/>
      <point x="346" y="334" type="line"/>
      <point x="346" y="380" type="line"/>
      <point x="558" y="380" type="line"/>
    </contour>
    <contour>
      <point x="346" y="0" type="line"/>
      <point x="346" y="47" type="line"/>
      <point x="618" y="47" type="line"/>
      <point x="618" y="0" type="line"/>
    </contour>
    <contour>
      <point x="608" y="638" type="line"/>
      <point x="346" y="638" type="line"/>
      <point x="346" y="685" type="line"/>
      <point x="608" y="685" type="line"/>
    </contour>
    <contour>
      <point x="346" y="0" type="line"/>
      <point x="346" y="685" type="line"/>
      <point x="396" y="685" type="line"/>
      <point x="396" y="0" type="line"/>
    </contour>
  </outline>
</glyph>
<glyph name="circumflex" format="1">
  <advance width="532"/>
  <unicode hex="02C6"/>
  <outline>
    <contour>
      <point x="174" y="685" type="line"/>
      <point x="237" y="685" type="line"/>
      <point x="143" y="555" type="line"/>
      <point x="97" y="555" type="line"/>
    </contour>
    <contour>
      <point x="174" y="685" type="line"/>
      <point x="237" y="685" type="line"/>
      <point x="314" y="555" type="line"/>
      <point x="268" y="555" type="line"/>
    </contour>
    <contour>
      <point x="203.0" y="500.0" type="move" name="_top"/>
    </contour>
  </outline>
</glyph>
<glyph name="breve" format="1">
  <advance width="406"/>
  <unicode hex="02D8"/>
  <outline>
    <contour>
      <point x="203" y="584" type="curve"/>
      <point x="137" y="584"/>
      <point x="105" y="635"/>
      <point x="105" y="685" type="curve"/>
      <point x="56" y="685" type="line"/>
      <point x="56" y="616"/>
      <point x="107" y="543"/>
      <point x="203" y="543" type="curve"/>
      <point x="299" y="543"/>
      <point x="350" y="616"/>
      <point x="350" y="685" type="curve"/>
      <point x="301" y="685" type="line"/>
      <point x="301" y="635"/>
      <point x="269" y="584"/>
    </contour>
    <contour>
      <point x="203" y="500" type="move" name="_top"/>
    </contour>
  </outline>
</glyph>
<glyph name="dotaccent" format="1">
  <advance width="190"/>
  <unicode hex="02D9"/>
  <outline>
    <contour>
      <point x="70" y="595" type="line"/>
      <point x="70" y="685" type="line"/>
      <point x="120" y="685" type="line"/>
      <point x="120" y="595" type="line"/>
    </contour>
    <contour>
      <point x="95" y="500" type="move" name="_top"/>
    </contour>
  </outline>
</glyph>
<glyph name="ring" format="1">
  <advance width="256"/>
  <unicode hex="02DA"/>
  <outline>
    <contour>
      <point x="51" y="559" type="curve" smooth="yes"/>
      <point x="51" y="516"/>
      <point x="84" y="481"/>
      <point x="128" y="481" type="curve" smooth="yes"/>
      <point x="172" y="481"/>
      <point x="205" y="516"/>
      <point x="205" y="559" type="curve" smooth="yes"/>
      <point x="205" y="602"/>
      <point x="172" y="637"/>
      <point x="128" y="637" type="curve" smooth="yes"/>
      <point x="84" y="637"/>
      <point x="51" y="602"/>
    </contour>
    <contour>
      <point x="128" y="677" type="curve" smooth="yes"/>
      <point x="195" y="677"/>
      <point x="246" y="626"/>
      <point x="246" y="559" type="curve" smooth="yes"/>
      <point x="246" y="492"/>
      <point x="195" y="441"/>
      <point x="128" y="441" type="curve" smooth="yes"/>
      <point x="61" y="441"/>
      <point x="10" y="492"/>
      <point x="10" y="559" type="curve" smooth="yes"/>
      <point x="10" y="626"/>
      <point x="61" y="677"/>
    </contour>
    <contour>
      <point x="128" y="500" type="move" name="_top"/>
    </contour>
  </outline>
</glyph>
<glyph name="ogonek" format="1">
  <advance width="327"/>
  <unicode hex="02DB"/>
  <outline>
    <contour>
      <point x="277" y="0" type="line"/>
      <point x="240" y="-22"/>
      <point x="209" y="-59"/>
      <point x="209" y="-101" type="curve"/>
      <point x="209" y="-143"/>
      <point x="241" y="-165"/>
      <point x="278" y="-165" type="curve"/>
      <point x="304" y="-165"/>
      <point x="332" y="-150"/>
      <point x="352" y="-129" type="curve"/>
      <point x="374" y="-161" type="line"/>
      <point x="342" y="-197"/>
      <point x="301" y="-214"/>
      <point x="261" y="-214" type="curve"/>
      <point x="203" y="-214"/>
      <point x="159" y="-182"/>
      <point x="159" y="-123" type="curve"/>
      <point x="159" y="-65"/>
      <point x="206" y="-9"/>
      <point x="258" y="15" type="curve"/>
    </contour>
    <contour>
      <point x="276" y="0" type="move" name="_ogonek"/>
    </contour>
  </outline>
</glyph>
<glyph name="tilde" format="1">
  <advance width="472"/>
  <unicode hex="02DC"/>
  <outline>
    <contour>
      <point x="231" y="618" type="curve" smooth="yes"/>
      <point x="200" y="640"/>
      <point x="174" y="654"/>
      <point x="148" y="654" type="curve" smooth="yes"/>
      <point x="103" y="654"/>
      <point x="70" y="626"/>
      <point x="70" y="570" type="curve"/>
      <point x="50" y="570" type="line"/>
      <point x="50" y="623"/>
      <point x="88" y="669"/>
      <point x="148" y="669" type="curve" smooth="yes"/>
      <point x="173" y="669"/>
      <point x="200" y="658"/>
      <point x="231" y="636" type="curve" smooth="yes"/>
      <point x="261" y="614"/>
      <point x="290" y="600"/>
      <point x="316" y="600" type="curve" smooth="yes"/>
      <point x="365" y="600"/>
      <point x="402" y="628"/>
      <point x="402" y="685" type="curve"/>
      <point x="422" y="685" type="line"/>
      <point x="422" y="631"/>
      <point x="385" y="585"/>
      <point x="316" y="585" type="curve" smooth="yes"/>
      <point x="291" y="585"/>
      <point x="262" y="595"/>
    </contour>
    <contour>
      <point x="236" y="502" type="move" name="_top"/>
    </contour>
  </outline>
</glyph>
<glyph name="hungarumlaut" format="1">
  <advance width="394"/>
  <unicode hex="02DD"/>
  <outline>
    <component base="acute" xOffset="11"/>
    <component base="acute" xOffset="-140"/>
    <contour>
      <point x="154" y="504" type="move" name="_top"/>
    </contour>
  </outline>
</glyph>
<glyph name="afii10057" format="1">
  <advance width="440"/>
  <unicode hex="0408"/>
  <outline>
    <component base="J"/>
    <contour>
      <point x="340" y="685" type="move" name="top"/>
    </contour>
  </outline>
</glyph>
<glyph name="afii10037" format="1">
  <advance width="570"/>
  <unicode hex="0423"/>
  <outline>
    <contour>
      <point x="269" y="-16" type="line"/>
      <point x="-7" y="685" type="line"/>
      <point x="50" y="685" type="line"/>
      <point x="318" y="-7" type="line"/>
    </contour>
    <contour>
      <point x="311" y="-42" type="line" smooth="yes"/>
      <point x="270" y="-152"/>
      <point x="197" y="-215"/>
      <point x="103" y="-215" type="curve" smooth="yes"/>
      <point x="73" y="-215"/>
      <point x="43" y="-211"/>
      <point x="17" y="-195" type="curve"/>
      <point x="33" y="-148" type="line"/>
      <point x="54" y="-158"/>
      <point x="75" y="-163"/>
      <point x="99" y="-163" type="curve" smooth="yes"/>
      <point x="167" y="-163"/>
      <point x="225" y="-124"/>
      <point x="255" y="-42" type="curve" smooth="yes"/>
      <point x="525" y="685" type="line"/>
      <point x="580" y="685" type="line"/>
    </contour>
    <contour>
      <point x="326" y="685" type="move" name="top"/>
    </contour>
  </outline>
</glyph>
<glyph name="afii10068" format="1">
  <advance width="382"/>
  <unicode hex="0433"/>
  <outline>
    <contour>
      <point x="372" y="451" type="line"/>
      <point x="63" y="451" type="line"/>
      <point x="63" y="500" type="line"/>
      <point x="372" y="500" type="line"/>
    </contour>
    <component base="dotlessi"/>
  </outline>
</glyph>
<glyph name="afii10084" format="1">
  <advance width="465"/>
  <unicode hex="0442"/>
  <outline>
    <contour>
      <point x="455" y="451" type="line"/>
      <point x="10" y="451" type="line"/>
      <point x="10" y="500" type="line"/>
      <point x="455" y="500" type="line"/>
    </contour>
    <contour>
      <point x="208" y="0" type="line"/>
      <point x="208" y="500" type="line"/>
      <point x="258" y="500" type="line"/>
      <point x="258" y="0" type="line"/>
    </contour>
  </outline>
</glyph>
<glyph name="minus" format="1">
  <advance width="565"/>
  <unicode hex="2212"/>
  <outline>
    <contour>
      <point x="88" y="296" type="line"/>
      <point x="477" y="296" type="line"/>
      <point x="477" y="252" type="line"/>
      <point x="88" y="252" type="line"/>
    </contour>
  </outline>
</glyph>
<glyph name="zero.onum" format="1">
  <advance width="638"/>
  <unicode hex="E000"/>
  <outline>
    <contour>
      <point x="324" y="37" type="curve"/>
      <point x="439" y="37"/>
      <point x="530" y="121"/>
      <point x="530" y="235" type="curve"/>
      <point x="530" y="356"/>
      <point x="443" y="451"/>
      <point x="324" y="451" type="curve"/>
      <point x="205" y="451"/>
      <point x="118" y="356"/>
      <point x="118" y="235" type="curve"/>
      <point x="118" y="121"/>
      <point x="209" y="37"/>
    </contour>
    <contour>
      <point x="324" y="-12" type="curve"/>
      <point x="178" y="-12"/>
      <point x="64" y="94"/>
      <point x="64" y="237" type="curve"/>
      <point x="64" y="386"/>
      <point x="176" y="500"/>
      <point x="324" y="500" type="curve"/>
      <point x="472" y="500"/>
      <point x="584" y="386"/>
      <point x="584" y="237" type="curve"/>
      <point x="584" y="94"/>
      <point x="470" y="-12"/>
    </contour>
  </outline>
</glyph>
<glyph name="one.onum" format="1">
  <advance width="236"/>
  <unicode hex="E001"/>
  <outline>
    <contour>
      <point x="131" y="0" type="line"/>
      <point x="131" y="412" type="line"/>
      <point x="148" y="366" type="line"/>
      <point x="20" y="366" type="line"/>
      <point x="20" y="397" type="line"/>
      <point x="86" y="402"/>
      <point x="138" y="429"/>
      <point x="148" y="500" type="curve"/>
      <point x="181" y="500" type="line"/>
      <point x="181" y="0" type="line"/>
    </contour>
  </outline>
</glyph>
<glyph name="two.onum" format="1">
  <advance width="371"/>
  <unicode hex="E002"/>
  <outline>
    <contour>
      <point x="341" y="0" type="line"/>
      <point x="56" y="0" type="line"/>
      <point x="56" y="20" type="line" smooth="yes"/>
      <point x="56" y="221.392430279"/>
      <point x="286" y="219"/>
      <point x="289" y="333" type="curve"/>
      <point x="289" y="423"/>
      <point x="249.0" y="459.0"/>
      <point x="184" y="459" type="curve" smooth="yes"/>
      <point x="125" y="459"/>
      <point x="63" y="416"/>
      <point x="78" y="275" type="curve"/>
      <point x="31" y="285" type="line"/>
      <point x="22" y="445"/>
      <point x="98" y="506"/>
      <point x="184" y="506" type="curve" smooth="yes"/>
      <point x="280.0" y="506.0"/>
      <point x="339" y="450"/>
      <point x="339" y="333" type="curve"/>
      <point x="336" y="168"/>
      <point x="112.0" y="213.625"/>
      <point x="112" y="18" type="curve"/>
      <point x="76" y="46" type="line"/>
      <point x="341" y="46" type="line"/>
    </contour>
  </outline>
</glyph>
<glyph name="fi" format="1">
  <advance width="378"/>
  <unicode hex="FB01"/>
  <outline>
    <contour>
      <point x="193" y="452" type="line"/>
      <point x="193" y="500" type="line"/>
      <point x="298" y="500" type="line"/>
      <point x="298" y="452" type="line"/>
    </contour>
    <component base="dotlessi" xOffset="218"/>
    <component base="f"/>
  </outline>
</glyph>
<glyph name="fl" format="1">
  <advance width="377"/>
  <unicode hex="FB02"/>
  <outline>
    <contour>
      <point x="19" y="452" type="line"/>
      <point x="19" y="500" type="line"/>
      <point x="202" y="500" type="line"/>
      <point x="202" y="452" type="line"/>
    </contour>
    <contour>
      <point x="129" y="0" type="line"/>
      <point x="79" y="0" type="line"/>
      <point x="79" y="606" type="line" smooth="yes"/>
      <point x="79" y="643.0"/>
      <point x="111" y="679"/>
      <point x="179" y="679" type="curve" smooth="yes"/>
      <point x="218.297709924" y="679.0"/>
      <point x="266" y="669"/>
      <point x="322" y="646" type="curve"/>
      <point x="304" y="602" type="line"/>
      <point x="253" y="625"/>
      <point x="214.769230769" y="630.0"/>
      <point x="188" y="630" type="curve" smooth="yes"/>
      <point x="146" y="630"/>
      <point x="129" y="612.0"/>
      <point x="129" y="589" type="curve" smooth="yes"/>
    </contour>
    <contour>
      <point x="272" y="0" type="line"/>
      <point x="272" y="646" type="line"/>
      <point x="322" y="646" type="line"/>
      <point x="322" y="0" type="line"/>
    </contour>
  </outline>
</glyph>
<glyph name="f_f_i" format="1">
  <advance width="570"/>
  <unicode hex="FB03"/>
  <outline>
    <contour>
      <point x="129" y="589" type="line" smooth="yes"/>
      <point x="129" y="612"/>
      <point x="146" y="630"/>
      <point x="188" y="630" type="curve" smooth="yes"/>
      <point x="209" y="630"/>
      <point x="236" y="627"/>
      <point x="271" y="615" type="curve"/>
      <point x="271" y="606"/>
      <point x="271" y="606"/>
      <point x="271" y="606" type="curve"/>
      <point x="271" y="500" type="line"/>
      <point x="129" y="500" type="line"/>
    </contour>
    <contour>
      <point x="79" y="0" type="line"/>
      <point x="129" y="0" type="line"/>
      <point x="129" y="452" type="line"/>
      <point x="271" y="452" type="line"/>
      <point x="271" y="0" type="line"/>
      <point x="321" y="0" type="line"/>
      <point x="321" y="452" type="line"/>
      <point x="465" y="452" type="line"/>
      <point x="465" y="0" type="line"/>
      <point x="515" y="0" type="line"/>
      <point x="515" y="500" type="line"/>
      <point x="321" y="500" type="line"/>
      <point x="321" y="589" type="line" smooth="yes"/>
      <point x="321" y="612"/>
      <point x="330" y="630"/>
      <point x="352" y="630" type="curve" smooth="yes"/>
      <point x="362" y="630"/>
      <point x="376" y="627"/>
      <point x="394" y="619" type="curve"/>
      <point x="412" y="663" type="line"/>
      <point x="385" y="674"/>
      <point x="362" y="679"/>
      <point x="343" y="679" type="curve" smooth="yes"/>
      <point x="320" y="679"/>
      <point x="302" y="671"/>
      <point x="290" y="658" type="curve"/>
      <point x="248" y="673"/>
      <point x="210" y="679"/>
      <point x="179" y="679" type="curve" smooth="yes"/>
      <point x="111" y="679"/>
      <point x="79" y="643"/>
      <point x="79" y="606" type="curve" smooth="yes"/>
      <point x="79" y="500" type="line"/>
      <point x="19" y="500" type="line"/>
      <point x="19" y="452" type="line"/>
      <point x="79" y="452" type="line"/>
    </contour>
  </outline>
</glyph>
<glyph name="f_f_l" format="1">
  <advance width="569"/>
  <unicode hex="FB04"/>
  <outline>
    <contour>
      <point x="211" y="452" type="line"/>
      <point x="211" y="500" type="line"/>
      <point x="394" y="500" type="line"/>
      <point x="394" y="452" type="line"/>
    </contour>
    <contour>
      <point x="321" y="0" type="line"/>
      <point x="271" y="0" type="line"/>
      <point x="271" y="606" type="line" smooth="yes"/>
      <point x="271" y="643"/>
      <point x="303" y="679"/>
      <point x="371" y="679" type="curve" smooth="yes"/>
      <point x="410" y="679"/>
      <point x="458" y="669"/>
      <point x="514" y="646" type="curve"/>
      <point x="496" y="602" type="line"/>
      <point x="445" y="625"/>
      <point x="407" y="630"/>
      <point x="380" y="630" type="curve" smooth="yes"/>
      <point x="338" y="630"/>
      <point x="321" y="612"/>
      <point x="321" y="589" type="curve" smooth="yes"/>
    </contour>
    <contour>
      <point x="464" y="0" type="line"/>
      <point x="464" y="646" type="line"/>
      <point x="514" y="646" type="line"/>
      <point x="514" y="0" type="line"/>
    </contour>
    <contour>
      <point x="129" y="0" type="line"/>
      <point x="79" y="0" type="line"/>
      <point x="79" y="606" type="line" smooth="yes"/>
      <point x="79" y="643"/>
      <point x="111" y="679"/>
      <point x="179" y="679" type="curve" smooth="yes"/>
      <point x="218" y="679"/>
      <point x="266" y="669"/>
      <point x="322" y="646" type="curve"/>
      <point x="304" y="602" type="line"/>
      <point x="253" y="625"/>
      <point x="215" y="630"/>
      <point x="188" y="630" type="curve" smooth="yes"/>
      <point x="146" y="630"/>
      <point x="129" y="612"/>
      <point x="129" y="589" type="curve" smooth="yes"/>
    </contour>
    <contour>
      <point x="19" y="452" type="line"/>
      <point x="19" y="500" type="line"/>
      <point x="394" y="500" type="line"/>
      <point x="394" y="452" type="line"/>
    </contour>
  </outline>
</glyph>
<glyph name="boucle" format="1">
  <advance width="630"/>
  <outline>
    <contour>
      <point x="398" y="259" type="line"/>
      <point x="398" y="398"/>
      <point x="357" y="462"/>
      <point x="300" y="462" type="curve"/>
      <point x="226" y="462"/>
      <point x="185" y="377"/>
      <point x="185" y="248" type="curve"/>
      <point x="185" y="104"/>
      <point x="230" y="37"/>
      <point x="301" y="38" type="curve"/>
      <point x="364" y="38"/>
      <point x="398" y="114"/>
      <point x="398" y="259" type="curve"/>
      <point x="431" y="259" type="line"/>
      <point x="431" y="92"/>
      <point x="381" y="-10"/>
      <point x="290" y="-10" type="curve"/>
      <point x="201" y="-11"/>
      <point x="135" y="70"/>
      <point x="135" y="248" type="curve" smooth="yes"/>
      <point x="135" y="416"/>
      <point x="203" y="510"/>
      <point x="294" y="510" type="curve"/>
      <point x="376" y="510"/>
      <point x="431" y="426"/>
      <point x="431" y="259" type="curve"/>
    </contour>
  </outline>
</glyph>
<glyph name="commaaccent.alt" format="1">
  <advance width="272"/>
  <outline>
    <component base="commaaccent" xScale="-1.0" yScale="-1.0" xOffset="235" yOffset="452"/>
    <contour>
      <point x="155" y="510" type="move" name="_top"/>
    </contour>
  </outline>
</glyph>
